#!OML:ASF X:\für Bonn\!DataBase\2005_08_10_Bjorn_Final\c3d\bjorn.ASF
:FULLY-SPECIFIED
:DEGREES
126
root 1.21151 17.5806 -1.32368 -219.472 -0.00551314 175.649
lowerback -0.693406 4.50747 4.26105
upperback 12.4436 7.57772 -0.665748
thorax 14.7023 4.87725 -1.86615
lowerneck 14.734 4.70467 5.51442
upperneck 9.65825 6.05112 -9.77959
head 0.988434 2.65838 -4.07434
rclavicle 2.36554e-014 -1.74931e-014
rhumerus 16.1222 13.908 -28.5467
rradius 81.6829
rwrist -6.29633
rhand -0.0977574 14.9604
rfingers 7.12502
rthumb 25.4967 -13.3538
lclavicle 2.36554e-014 -1.74931e-014
lhumerus -4.53357 6.23886 20.5259
lradius 99.4829
lwrist -18.8287
lhand -59.018 -27.488
lfingers 7.12502
lthumb -31.2165 -0.128027
rfemur 29.0345 5.64467 15.7827
rtibia 41.4875
rfoot -18.7356 29.6396
rtoes 3.1278
lfemur -39.9899 6.76732 -21.7172
ltibia 46.7615
lfoot 3.7417 6.01537
ltoes -15.5929
127
root 1.18377 17.5779 -1.26542 -218.91 -0.385066 175.92
lowerback -0.420161 4.38909 4.30309
upperback 12.4346 7.4653 -0.793331
thorax 14.5339 4.85269 -2.07539
lowerneck 13.8332 4.70511 5.32746
upperneck 9.35432 6.08522 -9.70992
head 1.02738 2.69619 -3.99899
rclavicle 1.2762e-013 -5.56597e-014
rhumerus 13.3703 14.1685 -29.0534
rradius 83.5724
rwrist -6.34374
rhand -0.481083 15.1557
rfingers 7.12502
rthumb 25.1295 -13.2104
lclavicle 1.2762e-013 -5.56597e-014
lhumerus -4.81976 5.12236 21.3957
lradius 99.739
lwrist -18.9061
lhand -59.1098 -27.7914
lfingers 7.12502
lthumb -31.304 -0.448315
rfemur 28.2633 5.41082 15.8145
rtibia 41.6075
rfoot -19.3955 29.3752
rtoes 2.32485
lfemur -39.5859 6.57607 -22.087
ltibia 47.7501
lfoot 3.98152 5.00952
ltoes -16.0738
128
root 1.15756 17.5767 -1.2025 -218.349 -0.788574 176.178
lowerback -0.108891 4.25795 4.30425
upperback 12.4471 7.34797 -0.918176
thorax 14.3601 4.82461 -2.26107
lowerneck 12.9036 4.72144 5.07563
upperneck 8.97157 6.09824 -9.29432
head 1.17485 2.73217 -4.16748
rclavicle -5.96354e-014 1.51076e-014
rhumerus 10.5459 14.5562 -29.661
rradius 85.346
rwrist -6.60168
rhand -1.08025 15.367
rfingers 7.12502
rthumb 24.5553 -13.0784
lclavicle -5.96354e-014 1.51076e-014
lhumerus -5.05083 3.93651 22.2716
lradius 99.9257
lwrist -18.8656
lhand -58.9658 -28.1021
lfingers 7.12502
lthumb -31.1668 -0.732556
rfemur 27.4843 5.15214 15.803
rtibia 41.7091
rfoot -19.8876 29.1918
rtoes 1.85139
lfemur -39.1883 6.4208 -22.4361
ltibia 48.8434
lfoot 4.07326 3.75842
ltoes -17.3404
129
root 1.13191 17.576 -1.13544 -217.761 -1.17676 176.499
lowerback 0.213595 4.11764 4.35943
upperback 12.4533 7.21085 -1.02774
thorax 14.175 4.79066 -2.46269
lowerneck 12.0873 4.73831 4.73375
upperneck 8.5714 6.13136 -9.1123
head 1.1616 2.76754 -4.01272
rclavicle 1.2921e-014 -2.94201e-014
rhumerus 7.68483 15.0476 -30.4444
rradius 86.9648
rwrist -6.99129
rhand -1.74435 15.5334
rfingers 7.12502
rthumb 23.9186 -12.9969
lclavicle 1.2921e-014 -2.94201e-014
lhumerus -5.27192 2.63921 23.151
lradius 100.08
lwrist -18.6363
lhand -58.5731 -28.4698
lfingers 7.12502
lthumb -30.7924 -1.02897
rfemur 26.6655 4.87851 15.8815
rtibia 41.8001
rfoot -20.2962 28.9717
rtoes 1.49248
lfemur -38.8283 6.27932 -22.6677
ltibia 50.0237
lfoot 4.01382 2.19039
ltoes -18.4207
130
root 1.10757 17.575 -1.06472 -217.166 -1.58241 176.827
lowerback 0.562831 6.02641 4.39564
upperback 12.5635 6.59148 -0.741344
thorax 14.0691 3.08583 -2.60712
lowerneck 11.2637 4.76249 4.2611
upperneck 8.11889 6.15887 -8.9134
head 1.12755 2.79703 -3.82831
rclavicle -6.71892e-014 5.80451e-014
rhumerus 4.88491 15.616 -31.2798
rradius 88.4026
rwrist -7.46751
rhand -2.3489 15.5778
rfingers 7.12502
rthumb 23.3387 -13.0273
lclavicle -6.71892e-014 5.80451e-014
lhumerus -5.48919 1.39818 24.1556
lradius 100.148
lwrist -18.5947
lhand -58.1129 -28.7287
lfingers 7.12502
lthumb -30.3536 -1.20604
rfemur 25.8189 4.5653 15.9359
rtibia 41.8889
rfoot -20.6242 28.79
rtoes 1.08778
lfemur -38.4804 6.1935 -22.863
ltibia 51.2651
lfoot 4.02533 0.489413
ltoes -18.5412
131
root 1.08405 17.5733 -0.992673 -216.524 -1.98136 177.18
lowerback 0.863728 5.89384 4.43213
upperback 12.6109 6.39707 -0.798568
thorax 13.9332 2.99335 -2.74161
lowerneck 10.4633 4.79838 3.75836
upperneck 7.58406 6.20091 -8.7232
head 1.06401 2.83634 -3.64479
rclavicle -1.76918e-014 3.33958e-014
rhumerus 2.15808 16.1756 -32.2557
rradius 89.5926
rwrist -7.93966
rhand -2.69298 15.535
rfingers 7.12502
rthumb 23.0086 -13.1117
lclavicle -1.76918e-014 3.33958e-014
lhumerus -5.66659 0.117522 25.2055
lradius 100.093
lwrist -18.6806
lhand -57.7581 -28.9978
lfingers 7.12502
lthumb -30.0151 -1.41322
rfemur 24.9187 4.23688 16.0183
rtibia 41.9688
rfoot -20.8845 28.6014
rtoes 0.782157
lfemur -38.1907 6.1872 -23.0108
ltibia 52.5633
lfoot 3.94688 -1.03082
ltoes -19.336
132
root 1.06218 17.5755 -0.916311 -215.854 -2.39881 177.558
lowerback 1.16562 5.73857 4.43823
upperback 12.6651 6.16946 -0.821776
thorax 13.7914 2.87823 -2.8247
lowerneck 9.63562 4.84359 3.1683
upperneck 7.05557 6.24704 -8.53568
head 1.00594 2.87295 -3.4471
rclavicle -4.64162e-014 3.81667e-014
rhumerus -0.345066 16.6361 -33.4733
rradius 90.0821
rwrist -8.37812
rhand -2.81096 15.6155
rfingers 7.12502
rthumb 22.8954 -13.0453
lclavicle -4.64162e-014 3.81667e-014
lhumerus -5.8296 -1.16413 26.3415
lradius 99.9054
lwrist -19.0139
lhand -57.6073 -29.2038
lfingers 7.12502
lthumb -29.8712 -1.59329
rfemur 23.9792 3.88442 16.1237
rtibia 42.0216
rfoot -21.0099 28.4223
rtoes 0.641078
lfemur -37.9537 6.2148 -23.1049
ltibia 53.9124
lfoot 3.67499 -2.30084
ltoes -20.1976
133
root 1.04135 17.5872 -0.836443 -215.169 -2.7981 177.951
lowerback 1.45509 5.59353 4.45962
upperback 12.7487 5.9471 -0.83323
thorax 13.6949 2.76414 -2.89908
lowerneck 8.75073 4.87947 2.5852
upperneck 6.54997 6.28696 -8.35649
head 0.966443 2.90469 -3.25407
rclavicle -6.55989e-015 2.46493e-014
rhumerus -2.7595 17.0651 -34.8181
rradius 90.2806
rwrist -8.97173
rhand -2.7537 15.5312
rfingers 7.12502
rthumb 22.9503 -13.1228
lclavicle -6.55989e-015 2.46493e-014
lhumerus -5.91127 -2.43823 27.4641
lradius 99.627
lwrist -19.3905
lhand -57.442 -29.6607
lfingers 7.12502
lthumb -29.7134 -2.0219
rfemur 23.0311 3.54503 16.2655
rtibia 42.0324
rfoot -21.0881 28.1965
rtoes 0.366578
lfemur -37.7538 6.2593 -23.126
ltibia 55.3237
lfoot 3.28617 -3.43708
ltoes -20.4409
134
root 1.02182 17.6053 -0.753358 -214.475 -3.2008 178.339
lowerback 1.73194 5.43644 4.44163
upperback 12.8526 5.70345 -0.819204
thorax 13.6196 2.63177 -2.92362
lowerneck 7.90378 4.91901 1.95195
upperneck 6.00104 6.32736 -8.19743
head 0.906591 2.93608 -3.06253
rclavicle -3.20043e-014 1.59028e-014
rhumerus -5.11101 17.5596 -36.1712
rradius 90.3623
rwrist -9.62642
rhand -2.61544 15.3249
rfingers 7.12502
rthumb 23.083 -13.3125
lclavicle -3.20043e-014 1.59028e-014
lhumerus -5.99467 -3.70156 28.6186
lradius 99.2841
lwrist -19.7359
lhand -57.22 -30.2153
lfingers 7.12502
lthumb -29.5015 -2.5389
rfemur 22.0816 3.22792 16.4172
rtibia 41.9935
rfoot -21.048 27.9769
rtoes 0.254817
lfemur -37.5651 6.30505 -23.0945
ltibia 56.7874
lfoot 2.78245 -4.28547
ltoes -20.344
135
root 1.00254 17.6305 -0.66794 -213.754 -3.58934 178.744
lowerback 1.97504 5.27972 4.44901
upperback 12.9519 5.45923 -0.796545
thorax 13.5627 2.50218 -2.94829
lowerneck 7.07539 4.95077 1.32126
upperneck 5.49638 6.35981 -8.02715
head 0.858105 2.96085 -2.87012
rclavicle -1.83876e-014 0
rhumerus -7.47674 18.0295 -37.6607
rradius 90.3123
rwrist -10.0997
rhand -2.48115 15.0195
rfingers 7.12502
rthumb 23.2118 -13.6017
lclavicle -1.83876e-014 0
lhumerus -6.05893 -5.00122 29.7281
lradius 98.8783
lwrist -20.1857
lhand -57.0692 -30.5591
lfingers 7.12502
lthumb -29.3575 -2.85736
rfemur 21.0986 2.90469 16.5925
rtibia 41.9237
rfoot -20.9811 27.7164
rtoes 0.047299
lfemur -37.3835 6.33423 -22.9867
ltibia 58.2942
lfoot 2.05351 -4.7654
ltoes -20.6756
136
root 0.984323 17.661 -0.580276 -213.047 -3.97847 179.134
lowerback 2.23226 5.12205 4.43038
upperback 13.0587 5.21161 -0.759554
thorax 13.5008 2.36558 -2.94283
lowerneck 6.26753 4.96653 0.711999
upperneck 5.01522 6.37419 -7.90942
head 0.816261 2.97436 -2.70184
rclavicle -7.03201e-014 0
rhumerus -9.90674 18.4132 -39.3229
rradius 90.1697
rwrist -10.3486
rhand -2.27177 14.6869
rfingers 7.12502
rthumb 23.4127 -13.9088
lclavicle -7.03201e-014 0
lhumerus -6.13938 -6.31642 30.8406
lradius 98.4185
lwrist -20.6103
lhand -56.9301 -30.9394
lfingers 7.12502
lthumb -29.2247 -3.21451
rfemur 20.1249 2.59903 16.7695
rtibia 41.84
rfoot -20.9692 27.3784
rtoes -0.50477
lfemur -37.1248 6.29619 -22.8167
ltibia 59.8213
lfoot 1.09327 -4.69659
ltoes -21.0056
137
root 0.967063 17.6909 -0.490631 -212.353 -4.37976 179.514
lowerback 2.54265 4.96748 4.39731
upperback 13.1457 4.97331 -0.724815
thorax 13.3816 2.23182 -2.93294
lowerneck 5.53459 4.97007 0.18299
upperneck 4.56281 6.37739 -7.81935
head 0.774882 2.98246 -2.56079
rclavicle 5.61567e-015 1.51076e-014
rhumerus -12.4519 18.6342 -41.2343
rradius 89.8631
rwrist -10.2457
rhand -2.0313 14.4358
rfingers 7.12502
rthumb 23.6434 -14.1303
lclavicle 5.61567e-015 1.51076e-014
lhumerus -6.17238 -7.69085 31.9173
lradius 97.8436
lwrist -21.065
lhand -56.8325 -31.2238
lfingers 7.12502
lthumb -29.1315 -3.48278
rfemur 19.1501 2.29826 16.9438
rtibia 41.7701
rfoot -20.9419 27.0056
rtoes -1.15628
lfemur -36.782 6.17056 -22.5979
ltibia 61.3514
lfoot 0.00827677 -4.00194
ltoes -21.7666
138
root 0.951048 17.7222 -0.40134 -211.641 -4.76487 179.88
lowerback 2.82887 4.81992 4.36425
upperback 13.2096 4.75071 -0.696683
thorax 13.2522 2.10798 -2.92516
lowerneck 4.83507 4.95861 -0.259595
upperneck 4.19154 6.36776 -7.76582
head 0.757915 2.98118 -2.44864
rclavicle 3.52346e-014 -2.3059e-014
rhumerus -15.0516 18.7679 -43.3983
rradius 89.3636
rwrist -10.247
rhand -1.84862 14.2911
rfingers 7.12502
rthumb 23.8186 -14.2523
lclavicle 3.52346e-014 -2.3059e-014
lhumerus -6.19226 -9.10071 32.9417
lradius 97.2107
lwrist -21.4403
lhand -56.6652 -31.5089
lfingers 7.12502
lthumb -28.9717 -3.74027
rfemur 18.1499 2.01377 17.124
rtibia 41.7041
rfoot -20.9778 26.5913
rtoes -2.03074
lfemur -36.3949 6.02212 -22.3199
ltibia 62.8668
lfoot -0.948464 -2.73402
ltoes -22.4184
139
root 0.93606 17.7575 -0.311021 -210.85 -5.15397 180.191
lowerback 3.06681 4.68339 4.28564
upperback 13.2258 4.55968 -0.694475
thorax 13.0953 2.00059 -2.91302
lowerneck 4.11978 4.94144 -0.613805
upperneck 3.98567 6.36232 -7.74963
head 0.80086 2.97409 -2.36324
rclavicle 4.3186e-014 -4.05521e-014
rhumerus -17.5992 18.7746 -45.7948
rradius 88.4851
rwrist -10.4063
rhand -1.86268 14.361
rfingers 7.12502
rthumb 23.8051 -14.1842
lclavicle 4.3186e-014 -4.05521e-014
lhumerus -6.18081 -10.631 33.9397
lradius 96.4746
lwrist -21.5189
lhand -56.4569 -31.8606
lfingers 7.12502
lthumb -28.7728 -4.05802
rfemur 17.0574 1.75275 17.2564
rtibia 41.6327
rfoot -21.0198 26.1256
rtoes -3.13389
lfemur -36.0474 5.86927 -22.0537
ltibia 64.3554
lfoot -1.69159 -1.08846
ltoes -22.581
140
root 0.921119 17.7985 -0.220102 -210.036 -5.53972 180.467
lowerback 3.27264 4.5506 4.15066
upperback 13.2342 4.37681 -0.674721
thorax 12.9416 1.89076 -2.84649
lowerneck 3.41661 4.92567 -0.931544
upperneck 3.84346 6.36283 -7.78912
head 0.865626 2.96545 -2.30302
rclavicle 1.31074e-014 1.51076e-014
rhumerus -19.8697 18.5807 -48.2168
rradius 87.1466
rwrist -10.6653
rhand -1.86018 14.6248
rfingers 7.12502
rthumb 23.8075 -13.9201
lclavicle 1.31074e-014 1.51076e-014
lhumerus -6.1841 -12.1983 34.9403
lradius 95.6847
lwrist -21.3979
lhand -56.2378 -32.2427
lfingers 7.12502
lthumb -28.5635 -4.40472
rfemur 15.954 1.52669 17.3769
rtibia 41.5281
rfoot -21.0667 25.5949
rtoes -4.41082
lfemur -35.6807 5.70055 -21.7746
ltibia 65.8055
lfoot -2.30216 0.707926
ltoes -22.8195
